<?xml version="1.0" encoding="UTF-8"?>
<svg id="Layer_2" data-name="Layer 2" xmlns="http://www.w3.org/2000/svg" viewBox="0 0 511.58 593.05">
  <defs>
    <style>
      .cls-1 {
        fill: #fefefe;
      }

      .cls-1, .cls-2, .cls-3, .cls-4, .cls-5 {
        stroke-width: 0px;
      }

      .cls-2 {
        fill: #d38c28;
      }

      .cls-3 {
        fill: #fff;
      }

      .cls-4 {
        fill: #8e6126;
      }

      .cls-5 {
        fill: #f9a11c;
      }
    </style>
  </defs>
  <g id="Layer_1-2" data-name="Layer 1">
    <g>
      <path class="cls-5" d="m402.11,570.95c-26.66,11.53-54.5,18.47-83.4,20.98-53.61,4.66-104.58-5.12-152.84-28.76-33.27-16.3-62.32-38.3-87.34-65.69-17.26-18.9-31.9-39.63-43.9-62.18-16.01-30.08-26.67-62.01-31.49-95.79-8.37-58.67,0-114.82,25.61-168.33,5.08-10.61,15.43-14.93,25.32-10.63,10.2,4.44,14.89,15.52,10.69,26.21-10.26,26.07-16.71,53.03-18.94,80.94-3.45,43.21,2.56,85.1,18.07,125.59,11.65,30.42,27.81,58.26,48.85,83.1,42.25,49.89,95.19,82.41,159.19,96.4,42.39,9.27,84.68,8.57,126.75-2.34.6-.16,1.22-.2,1.84-.3.79-.26,1.65-.65,1.61.79Z"/>
      <path class="cls-3" d="m66.42,107.17c13.28-.03,24.09,10.77,24.05,24.02-.04,13-10.84,23.93-23.71,24-13.58.06-24.39-10.6-24.37-24.07.01-13.33,10.63-23.91,24.03-23.94Z"/>
      <path class="cls-3" d="m497.4,101.02c-.11,13.35-10.83,23.9-24.19,23.81-13.28-.09-23.93-10.88-23.84-24.17.08-13.18,10.98-23.94,24.19-23.9,13.15.05,23.95,11.03,23.84,24.25Z"/>
      <path class="cls-5" d="m435.01,147.63c13.15.22,23.61,10.98,23.47,24.16-.14,13.32-11.04,24.02-24.24,23.81-13.22-.21-23.96-11.26-23.74-24.41.23-13.22,11.22-23.78,24.51-23.55Z"/>
      <path class="cls-5" d="m271.63,23.76C271.8,10.26,282.37-.11,295.82,0c13.29.11,24.03,11.1,23.74,24.28-.29,13.12-11.11,23.76-24.08,23.67-13.29-.09-24.02-10.97-23.85-24.2Z"/>
      <path class="cls-1" d="m511.58,161.04c.02,7.32-5.69,13.01-13.02,12.98-7.02-.03-12.96-5.86-13.01-12.76-.05-7.17,5.85-13.24,12.92-13.29,7.1-.06,13.09,5.92,13.11,13.08Z"/>
      <path class="cls-5" d="m118.18,91.22c.02,7.14-5.6,12.95-12.65,13.07-7.19.12-13.23-5.73-13.31-12.9-.08-7.07,6.03-13.21,13.07-13.13,6.93.07,12.88,6.06,12.9,12.96Z"/>
      <path class="cls-1" d="m369.48,37.42c.08,7.2-5.71,13.07-12.93,13.12-7.25.05-13.02-5.71-13.03-12.99-.01-7.04,5.69-12.86,12.71-12.98,7.2-.12,13.17,5.67,13.25,12.85Z"/>
      <path class="cls-5" d="m444.18,81.5c-2.26-6.9-7.46-10.24-14.34-11.52-25.83-4.8-51.76-5.67-77.85-2.43-33.75,4.2-65.27,14.98-94.63,31.99-23.93,13.86-44.9,31.4-62.81,52.5-45.27,53.34-65.14,115.05-59.48,184.66,3.75,46.06,19.83,87.81,47.17,125.12,1.82,2.48,6.78,9.7,8.59,10.05-.25-1.86-9.6-17.66-12.83-24.64-17.25-37.26-24.81-76.4-22.4-117.45,1.85-31.53,9.43-61.62,23.22-89.99,23.47-48.26,58.8-85.25,106.39-110.28,31.26-16.44,64.61-25.35,99.85-27.25,13.86-.75,27.68-.09,41.48,1.33,5.39.55,10.15-1.08,13.88-5.1,4.54-4.9,5.83-10.65,3.76-16.99Z"/>
      <path class="cls-2" d="m402.11,570.95c-.54-.26-1.08-.53-1.61-.79,1.68-.94,3.54-1.22,5.39-1.57.18.2.23.4.16.59-.07.19-.14.28-.2.28-1.24.5-2.49.99-3.73,1.49Z"/>
      <path class="cls-4" d="m405.85,569.46c.01-.29.03-.58.04-.87.88-.95,2.11-.81,3.89-1.37-1.34,1.67-2.62,1.99-3.94,2.24Z"/>
      <path class="cls-3" d="m401.97,164.85c-.95-9.73-9.43-16.85-19.16-15.92-50.5,4.83-94.93,23.76-132.46,58.01-26.95,24.6-40.09,35.3-59.41,88.51-16.09,44.32-13.43,92.53-13.42,94.2-.05.46-.26,1,.31,1.25.62.27.93-.28.96-.69.11-1.92,14.05-79.15,49.45-127.1,22.57-30.58,54.05-50.84,89.53-64.62,21.92-8.52,44.61-13.16,68.02-14.75,9.84-.67,17.11-9.37,16.18-18.88Zm-224.45,224.79c.08-.11.13-.23.19-.35-.05.12-.11.23-.19.35Z"/>
      <path class="cls-3" d="m169.39,477.21c-14.84-18.27-26.91-38.28-36.64-59.74-14.56-32.07-22.55-65.7-24.03-100.83-1.79-42.28,5.52-82.98,22.46-121.81,20.02-45.91,50.27-83.68,90.84-113.15,11.32-8.23,23.37-15.23,35.42-22.3,9.09-5.33,11.74-16.19,6.91-25.43-4.54-8.71-15.35-12.35-24.82-8.34-10.46,4.43-20.54,9.6-30.35,15.33-39.43,23.05-71.76,53.59-96.27,92.15-35.22,55.4-49.46,115.97-43.29,181.28,4.12,43.59,18.15,83.96,41.28,121.02,24.31,38.93,56.2,70.33,95.73,93.82,19.14,11.37,67.58,29.53,68.69,28.77-.3-1.04-79.21-47.87-105.92-80.78Z"/>
    </g>
  </g>
</svg>